<?xml version="1.0" encoding="us-ascii" standalone="no"?><svg xmlns="http://www.w3.org/2000/svg" xmlns:xlink="http://www.w3.org/1999/xlink" contentStyleType="text/css" height="771px" preserveAspectRatio="none" style="width:1425px;height:771px;background:#FFFFFF;" version="1.1" viewBox="0 0 1425 771" width="1425px" zoomAndPan="magnify"><defs/><g><!--cluster app--><g id="cluster_app"><path d="M923.68,119 L950.68,119 A3.75,3.75 0 0 1 953.18,121.5 L960.18,142.6094 L1072.68,142.6094 A2.5,2.5 0 0 1 1075.18,145.1094 L1075.18,216.5 A2.5,2.5 0 0 1 1072.68,219 L923.68,219 A2.5,2.5 0 0 1 921.18,216.5 L921.18,121.5 A2.5,2.5 0 0 1 923.68,119 " fill="none" style="stroke:#000000;stroke-width:1.5;"/><line style="stroke:#000000;stroke-width:1.5;" x1="921.18" x2="960.18" y1="142.6094" y2="142.6094"/><text fill="#000000" font-family="sans-serif" font-size="14" font-weight="bold" lengthAdjust="spacing" textLength="26" x="925.18" y="135.5332">app</text></g><!--cluster factory--><g id="cluster_factory"><path d="M1163.68,269 L1212.68,269 A3.75,3.75 0 0 1 1215.18,271.5 L1222.18,292.6094 L1330.68,292.6094 A2.5,2.5 0 0 1 1333.18,295.1094 L1333.18,516.5 A2.5,2.5 0 0 1 1330.68,519 L1163.68,519 A2.5,2.5 0 0 1 1161.18,516.5 L1161.18,271.5 A2.5,2.5 0 0 1 1163.68,269 " fill="none" style="stroke:#000000;stroke-width:1.5;"/><line style="stroke:#000000;stroke-width:1.5;" x1="1161.18" x2="1222.18" y1="292.6094" y2="292.6094"/><text fill="#000000" font-family="sans-serif" font-size="14" font-weight="bold" lengthAdjust="spacing" textLength="48" x="1165.18" y="285.5332">factory</text></g><!--cluster schedule--><g id="cluster_schedule"><path d="M256.68,269 L322.68,269 A3.75,3.75 0 0 1 325.18,271.5 L332.18,292.6094 L413.68,292.6094 A2.5,2.5 0 0 1 416.18,295.1094 L416.18,516.5 A2.5,2.5 0 0 1 413.68,519 L256.68,519 A2.5,2.5 0 0 1 254.18,516.5 L254.18,271.5 A2.5,2.5 0 0 1 256.68,269 " fill="none" style="stroke:#000000;stroke-width:1.5;"/><line style="stroke:#000000;stroke-width:1.5;" x1="254.18" x2="332.18" y1="292.6094" y2="292.6094"/><text fill="#000000" font-family="sans-serif" font-size="14" font-weight="bold" lengthAdjust="spacing" textLength="65" x="258.18" y="285.5332">schedule</text></g><!--cluster model--><g id="cluster_model"><path d="M1264.68,552 L1308.68,552 A3.75,3.75 0 0 1 1311.18,554.5 L1318.18,575.6094 L1379.68,575.6094 A2.5,2.5 0 0 1 1382.18,578.1094 L1382.18,649.5 A2.5,2.5 0 0 1 1379.68,652 L1264.68,652 A2.5,2.5 0 0 1 1262.18,649.5 L1262.18,554.5 A2.5,2.5 0 0 1 1264.68,552 " fill="none" style="stroke:#000000;stroke-width:1.5;"/><line style="stroke:#000000;stroke-width:1.5;" x1="1262.18" x2="1318.18" y1="575.6094" y2="575.6094"/><text fill="#000000" font-family="sans-serif" font-size="14" font-weight="bold" lengthAdjust="spacing" textLength="43" x="1266.18" y="568.5332">model</text></g><!--cluster strategy--><g id="cluster_strategy"><path d="M913.68,269 L971.68,269 A3.75,3.75 0 0 1 974.18,271.5 L981.18,292.6094 L1134.68,292.6094 A2.5,2.5 0 0 1 1137.18,295.1094 L1137.18,516.5 A2.5,2.5 0 0 1 1134.68,519 L913.68,519 A2.5,2.5 0 0 1 911.18,516.5 L911.18,271.5 A2.5,2.5 0 0 1 913.68,269 " fill="none" style="stroke:#000000;stroke-width:1.5;"/><line style="stroke:#000000;stroke-width:1.5;" x1="911.18" x2="981.18" y1="292.6094" y2="292.6094"/><text fill="#000000" font-family="sans-serif" font-size="14" font-weight="bold" lengthAdjust="spacing" textLength="57" x="915.18" y="285.5332">strategy</text></g><!--cluster decorator--><g id="cluster_decorator"><path d="M442.68,119 L512.68,119 A3.75,3.75 0 0 1 515.18,121.5 L522.18,142.6094 L808.68,142.6094 A2.5,2.5 0 0 1 811.18,145.1094 L811.18,366.5 A2.5,2.5 0 0 1 808.68,369 L442.68,369 A2.5,2.5 0 0 1 440.18,366.5 L440.18,121.5 A2.5,2.5 0 0 1 442.68,119 " fill="none" style="stroke:#000000;stroke-width:1.5;"/><line style="stroke:#000000;stroke-width:1.5;" x1="440.18" x2="522.18" y1="142.6094" y2="142.6094"/><text fill="#000000" font-family="sans-serif" font-size="14" font-weight="bold" lengthAdjust="spacing" textLength="69" x="444.18" y="135.5332">decorator</text></g><!--cluster util--><g id="cluster_util"><path d="M100.68,419 L123.68,419 A3.75,3.75 0 0 1 126.18,421.5 L133.18,442.6094 L227.68,442.6094 A2.5,2.5 0 0 1 230.18,445.1094 L230.18,516.5 A2.5,2.5 0 0 1 227.68,519 L100.68,519 A2.5,2.5 0 0 1 98.18,516.5 L98.18,421.5 A2.5,2.5 0 0 1 100.68,419 " fill="none" style="stroke:#000000;stroke-width:1.5;"/><line style="stroke:#000000;stroke-width:1.5;" x1="98.18" x2="133.18" y1="442.6094" y2="442.6094"/><text fill="#000000" font-family="sans-serif" font-size="14" font-weight="bold" lengthAdjust="spacing" textLength="22" x="102.18" y="435.5332">util</text></g><!--class SchedulerApp--><g id="elem_SchedulerApp"><rect codeLine="4" fill="#F1F1F1" height="48" id="SchedulerApp" rx="2.5" ry="2.5" style="stroke:#181818;stroke-width:0.5;" width="121" x="937.68" y="155"/><ellipse cx="952.68" cy="171" fill="#ADD1B2" rx="11" ry="11" style="stroke:#181818;stroke-width:1.0;"/><path d="M955.4456,166.875 Q955.6019,166.6563 955.7894,166.5469 Q955.9769,166.4375 956.1956,166.4375 Q956.5706,166.4375 956.805,166.7031 Q957.0394,166.9531 957.0394,167.5625 L957.0394,169.0156 Q957.0394,169.625 956.805,169.8906 Q956.5706,170.1563 956.1956,170.1563 Q955.8519,170.1563 955.6488,169.9531 Q955.4456,169.7656 955.3363,169.25 Q955.2894,168.8906 955.1019,168.7031 Q954.7738,168.3281 954.1644,168.1094 Q953.555,167.8906 952.93,167.8906 Q952.1644,167.8906 951.5238,168.2188 Q950.8988,168.5469 950.3988,169.2969 Q949.9144,170.0469 949.9144,171.0781 L949.9144,172.1719 Q949.9144,173.4063 950.805,174.2344 Q951.6956,175.0469 953.2894,175.0469 Q954.2269,175.0469 954.8831,174.7969 Q955.2738,174.6406 955.6956,174.2031 Q955.9613,173.9375 956.1019,173.8594 Q956.2581,173.7813 956.4613,173.7813 Q956.7894,173.7813 957.0394,174.0469 Q957.305,174.2969 957.305,174.6406 Q957.305,174.9844 956.9613,175.3906 Q956.4613,175.9688 955.6644,176.2969 Q954.5863,176.75 953.2894,176.75 Q951.7738,176.75 950.5706,176.125 Q949.5863,175.625 948.8988,174.5625 Q948.2113,173.4844 948.2113,172.2031 L948.2113,171.0469 Q948.2113,169.7188 948.8206,168.5781 Q949.4456,167.4219 950.5394,166.8125 Q951.6331,166.1875 952.8675,166.1875 Q953.6019,166.1875 954.2425,166.3594 Q954.8988,166.5156 955.4456,166.875 Z " fill="#000000"/><text fill="#000000" font-family="sans-serif" font-size="14" lengthAdjust="spacing" textLength="89" x="966.68" y="176.7285">SchedulerApp</text><line style="stroke:#181818;stroke-width:0.5;" x1="938.68" x2="1057.68" y1="187" y2="187"/><line style="stroke:#181818;stroke-width:0.5;" x1="938.68" x2="1057.68" y1="195" y2="195"/></g><!--class ScheduleFactory--><g id="elem_ScheduleFactory"><rect codeLine="12" fill="#F1F1F1" height="48" id="ScheduleFactory" rx="2.5" ry="2.5" style="stroke:#181818;stroke-width:0.5;" width="139" x="1177.68" y="305"/><ellipse cx="1192.68" cy="321" fill="#ADD1B2" rx="11" ry="11" style="stroke:#181818;stroke-width:1.0;"/><path d="M1195.4456,316.875 Q1195.6019,316.6563 1195.7894,316.5469 Q1195.9769,316.4375 1196.1956,316.4375 Q1196.5706,316.4375 1196.805,316.7031 Q1197.0394,316.9531 1197.0394,317.5625 L1197.0394,319.0156 Q1197.0394,319.625 1196.805,319.8906 Q1196.5706,320.1563 1196.1956,320.1563 Q1195.8519,320.1563 1195.6487,319.9531 Q1195.4456,319.7656 1195.3362,319.25 Q1195.2894,318.8906 1195.1019,318.7031 Q1194.7737,318.3281 1194.1644,318.1094 Q1193.555,317.8906 1192.93,317.8906 Q1192.1644,317.8906 1191.5237,318.2188 Q1190.8987,318.5469 1190.3987,319.2969 Q1189.9144,320.0469 1189.9144,321.0781 L1189.9144,322.1719 Q1189.9144,323.4063 1190.805,324.2344 Q1191.6956,325.0469 1193.2894,325.0469 Q1194.2269,325.0469 1194.8831,324.7969 Q1195.2737,324.6406 1195.6956,324.2031 Q1195.9612,323.9375 1196.1019,323.8594 Q1196.2581,323.7813 1196.4612,323.7813 Q1196.7894,323.7813 1197.0394,324.0469 Q1197.305,324.2969 1197.305,324.6406 Q1197.305,324.9844 1196.9612,325.3906 Q1196.4612,325.9688 1195.6644,326.2969 Q1194.5862,326.75 1193.2894,326.75 Q1191.7737,326.75 1190.5706,326.125 Q1189.5862,325.625 1188.8987,324.5625 Q1188.2112,323.4844 1188.2112,322.2031 L1188.2112,321.0469 Q1188.2112,319.7188 1188.8206,318.5781 Q1189.4456,317.4219 1190.5394,316.8125 Q1191.6331,316.1875 1192.8675,316.1875 Q1193.6019,316.1875 1194.2425,316.3594 Q1194.8987,316.5156 1195.4456,316.875 Z " fill="#000000"/><text fill="#000000" font-family="sans-serif" font-size="14" lengthAdjust="spacing" textLength="107" x="1206.68" y="326.7285">ScheduleFactory</text><line style="stroke:#181818;stroke-width:0.5;" x1="1178.68" x2="1315.68" y1="337" y2="337"/><line style="stroke:#181818;stroke-width:0.5;" x1="1178.68" x2="1315.68" y1="345" y2="345"/></g><!--class ScheduleType--><g id="elem_ScheduleType"><rect codeLine="13" fill="#F1F1F1" height="48" id="ScheduleType" rx="2.5" ry="2.5" style="stroke:#181818;stroke-width:0.5;" width="123" x="1185.68" y="455"/><ellipse cx="1200.68" cy="471" fill="#EB937F" rx="11" ry="11" style="stroke:#181818;stroke-width:1.0;"/><path d="M1199.5394,471.7969 L1199.5394,474.2969 L1203.8675,474.2969 L1203.8675,473.375 Q1203.8675,472.7656 1204.1019,472.5 Q1204.3519,472.2344 1204.7269,472.2344 Q1205.1019,472.2344 1205.3362,472.5 Q1205.5706,472.7656 1205.5706,473.375 L1205.5706,476 L1197.5706,476 Q1196.9456,476 1196.68,475.7656 Q1196.43,475.5313 1196.43,475.1406 Q1196.43,474.7656 1196.6956,474.5313 Q1196.9612,474.2969 1197.5706,474.2969 L1197.8362,474.2969 L1197.8362,467.6406 L1197.5706,467.6406 Q1196.9456,467.6406 1196.68,467.4063 Q1196.43,467.1719 1196.43,466.7813 Q1196.43,466.4063 1196.68,466.1719 Q1196.9456,465.9375 1197.5706,465.9375 L1205.1956,465.9375 L1205.1956,468.5313 Q1205.1956,469.1406 1204.9612,469.4063 Q1204.7425,469.6563 1204.3519,469.6563 Q1203.9769,469.6563 1203.7425,469.4063 Q1203.5081,469.1406 1203.5081,468.5313 L1203.5081,467.6406 L1199.5394,467.6406 L1199.5394,470.0938 L1201.0237,470.0938 Q1201.0237,469.4375 1201.1487,469.25 Q1201.4144,468.8438 1201.8831,468.8438 Q1202.2581,468.8438 1202.4925,469.1094 Q1202.7269,469.3594 1202.7269,469.9688 L1202.7269,471.9375 Q1202.7269,472.4844 1202.6019,472.6719 Q1202.3362,473.0625 1201.8831,473.0625 Q1201.4144,473.0625 1201.1487,472.6563 Q1201.0237,472.4688 1201.0237,471.7969 L1199.5394,471.7969 Z " fill="#000000"/><text fill="#000000" font-family="sans-serif" font-size="14" lengthAdjust="spacing" textLength="91" x="1214.68" y="476.7285">ScheduleType</text><line style="stroke:#181818;stroke-width:0.5;" x1="1186.68" x2="1307.68" y1="487" y2="487"/><line style="stroke:#181818;stroke-width:0.5;" x1="1186.68" x2="1307.68" y1="495" y2="495"/></g><!--class Scheduler--><g id="elem_Scheduler"><rect codeLine="17" fill="#F1F1F1" height="48" id="Scheduler" rx="2.5" ry="2.5" style="stroke:#181818;stroke-width:0.5;" width="96" x="304.18" y="455"/><ellipse cx="319.18" cy="471" fill="#B4A7E5" rx="11" ry="11" style="stroke:#181818;stroke-width:1.0;"/><path d="M320.1331,467.6406 L320.1331,474.2969 L321.8519,474.2969 Q322.4612,474.2969 322.7269,474.5313 Q322.9925,474.7656 322.9925,475.1563 Q322.9925,475.5313 322.7269,475.7656 Q322.4612,476 321.8519,476 L316.7112,476 Q316.1019,476 315.8362,475.7656 Q315.5706,475.5313 315.5706,475.1406 Q315.5706,474.7656 315.8362,474.5313 Q316.1019,474.2969 316.7112,474.2969 L318.43,474.2969 L318.43,467.6406 L316.7112,467.6406 Q316.1019,467.6406 315.8362,467.4063 Q315.5706,467.1719 315.5706,466.7813 Q315.5706,466.4063 315.8362,466.1719 Q316.1019,465.9375 316.7112,465.9375 L321.8519,465.9375 Q322.4612,465.9375 322.7269,466.1719 Q322.9925,466.4063 322.9925,466.7813 Q322.9925,467.1719 322.7269,467.4063 Q322.4612,467.6406 321.8519,467.6406 L320.1331,467.6406 Z " fill="#000000"/><text fill="#000000" font-family="sans-serif" font-size="14" font-style="italic" lengthAdjust="spacing" textLength="64" x="333.18" y="476.7285">Scheduler</text><line style="stroke:#181818;stroke-width:0.5;" x1="305.18" x2="399.18" y1="487" y2="487"/><line style="stroke:#181818;stroke-width:0.5;" x1="305.18" x2="399.18" y1="495" y2="495"/></g><!--class BasicScheduler--><g id="elem_BasicScheduler"><rect codeLine="18" fill="#F1F1F1" height="48" id="BasicScheduler" rx="2.5" ry="2.5" style="stroke:#181818;stroke-width:0.5;" width="130" x="270.18" y="305"/><ellipse cx="285.18" cy="321" fill="#ADD1B2" rx="11" ry="11" style="stroke:#181818;stroke-width:1.0;"/><path d="M287.9456,316.875 Q288.1019,316.6563 288.2894,316.5469 Q288.4769,316.4375 288.6956,316.4375 Q289.0706,316.4375 289.305,316.7031 Q289.5394,316.9531 289.5394,317.5625 L289.5394,319.0156 Q289.5394,319.625 289.305,319.8906 Q289.0706,320.1563 288.6956,320.1563 Q288.3519,320.1563 288.1487,319.9531 Q287.9456,319.7656 287.8362,319.25 Q287.7894,318.8906 287.6019,318.7031 Q287.2737,318.3281 286.6644,318.1094 Q286.055,317.8906 285.43,317.8906 Q284.6644,317.8906 284.0237,318.2188 Q283.3987,318.5469 282.8987,319.2969 Q282.4144,320.0469 282.4144,321.0781 L282.4144,322.1719 Q282.4144,323.4063 283.305,324.2344 Q284.1956,325.0469 285.7894,325.0469 Q286.7269,325.0469 287.3831,324.7969 Q287.7737,324.6406 288.1956,324.2031 Q288.4612,323.9375 288.6019,323.8594 Q288.7581,323.7813 288.9612,323.7813 Q289.2894,323.7813 289.5394,324.0469 Q289.805,324.2969 289.805,324.6406 Q289.805,324.9844 289.4612,325.3906 Q288.9612,325.9688 288.1644,326.2969 Q287.0862,326.75 285.7894,326.75 Q284.2737,326.75 283.0706,326.125 Q282.0862,325.625 281.3987,324.5625 Q280.7112,323.4844 280.7112,322.2031 L280.7112,321.0469 Q280.7112,319.7188 281.3206,318.5781 Q281.9456,317.4219 283.0394,316.8125 Q284.1331,316.1875 285.3675,316.1875 Q286.1019,316.1875 286.7425,316.3594 Q287.3987,316.5156 287.9456,316.875 Z " fill="#000000"/><text fill="#000000" font-family="sans-serif" font-size="14" lengthAdjust="spacing" textLength="98" x="299.18" y="326.7285">BasicScheduler</text><line style="stroke:#181818;stroke-width:0.5;" x1="271.18" x2="399.18" y1="337" y2="337"/><line style="stroke:#181818;stroke-width:0.5;" x1="271.18" x2="399.18" y1="345" y2="345"/></g><!--class TimeSlot--><g id="elem_TimeSlot"><rect codeLine="22" fill="#F1F1F1" height="48" id="TimeSlot" rx="2.5" ry="2.5" style="stroke:#181818;stroke-width:0.5;" width="87" x="1278.68" y="588"/><ellipse cx="1293.68" cy="604" fill="#ADD1B2" rx="11" ry="11" style="stroke:#181818;stroke-width:1.0;"/><path d="M1296.4456,599.875 Q1296.6019,599.6563 1296.7894,599.5469 Q1296.9769,599.4375 1297.1956,599.4375 Q1297.5706,599.4375 1297.805,599.7031 Q1298.0394,599.9531 1298.0394,600.5625 L1298.0394,602.0156 Q1298.0394,602.625 1297.805,602.8906 Q1297.5706,603.1563 1297.1956,603.1563 Q1296.8519,603.1563 1296.6487,602.9531 Q1296.4456,602.7656 1296.3362,602.25 Q1296.2894,601.8906 1296.1019,601.7031 Q1295.7737,601.3281 1295.1644,601.1094 Q1294.555,600.8906 1293.93,600.8906 Q1293.1644,600.8906 1292.5237,601.2188 Q1291.8987,601.5469 1291.3987,602.2969 Q1290.9144,603.0469 1290.9144,604.0781 L1290.9144,605.1719 Q1290.9144,606.4063 1291.805,607.2344 Q1292.6956,608.0469 1294.2894,608.0469 Q1295.2269,608.0469 1295.8831,607.7969 Q1296.2737,607.6406 1296.6956,607.2031 Q1296.9612,606.9375 1297.1019,606.8594 Q1297.2581,606.7813 1297.4612,606.7813 Q1297.7894,606.7813 1298.0394,607.0469 Q1298.305,607.2969 1298.305,607.6406 Q1298.305,607.9844 1297.9612,608.3906 Q1297.4612,608.9688 1296.6644,609.2969 Q1295.5862,609.75 1294.2894,609.75 Q1292.7737,609.75 1291.5706,609.125 Q1290.5862,608.625 1289.8987,607.5625 Q1289.2112,606.4844 1289.2112,605.2031 L1289.2112,604.0469 Q1289.2112,602.7188 1289.8206,601.5781 Q1290.4456,600.4219 1291.5394,599.8125 Q1292.6331,599.1875 1293.8675,599.1875 Q1294.6019,599.1875 1295.2425,599.3594 Q1295.8987,599.5156 1296.4456,599.875 Z " fill="#000000"/><text fill="#000000" font-family="sans-serif" font-size="14" lengthAdjust="spacing" textLength="55" x="1307.68" y="609.7285">TimeSlot</text><line style="stroke:#181818;stroke-width:0.5;" x1="1279.68" x2="1364.68" y1="620" y2="620"/><line style="stroke:#181818;stroke-width:0.5;" x1="1279.68" x2="1364.68" y1="628" y2="628"/></g><!--class TimeSelectionStrategy--><g id="elem_TimeSelectionStrategy"><rect codeLine="26" fill="#F1F1F1" height="48" id="TimeSelectionStrategy" rx="2.5" ry="2.5" style="stroke:#181818;stroke-width:0.5;" width="174" x="932.18" y="455"/><ellipse cx="947.18" cy="471" fill="#B4A7E5" rx="11" ry="11" style="stroke:#181818;stroke-width:1.0;"/><path d="M948.1331,467.6406 L948.1331,474.2969 L949.8519,474.2969 Q950.4613,474.2969 950.7269,474.5313 Q950.9925,474.7656 950.9925,475.1563 Q950.9925,475.5313 950.7269,475.7656 Q950.4613,476 949.8519,476 L944.7113,476 Q944.1019,476 943.8363,475.7656 Q943.5706,475.5313 943.5706,475.1406 Q943.5706,474.7656 943.8363,474.5313 Q944.1019,474.2969 944.7113,474.2969 L946.43,474.2969 L946.43,467.6406 L944.7113,467.6406 Q944.1019,467.6406 943.8363,467.4063 Q943.5706,467.1719 943.5706,466.7813 Q943.5706,466.4063 943.8363,466.1719 Q944.1019,465.9375 944.7113,465.9375 L949.8519,465.9375 Q950.4613,465.9375 950.7269,466.1719 Q950.9925,466.4063 950.9925,466.7813 Q950.9925,467.1719 950.7269,467.4063 Q950.4613,467.6406 949.8519,467.6406 L948.1331,467.6406 Z " fill="#000000"/><text fill="#000000" font-family="sans-serif" font-size="14" font-style="italic" lengthAdjust="spacing" textLength="142" x="961.18" y="476.7285">TimeSelectionStrategy</text><line style="stroke:#181818;stroke-width:0.5;" x1="933.18" x2="1105.18" y1="487" y2="487"/><line style="stroke:#181818;stroke-width:0.5;" x1="933.18" x2="1105.18" y1="495" y2="495"/></g><!--class SimpleAvailabilityStrategy--><g id="elem_SimpleAvailabilityStrategy"><rect codeLine="27" fill="#F1F1F1" height="48" id="SimpleAvailabilityStrategy" rx="2.5" ry="2.5" style="stroke:#181818;stroke-width:0.5;" width="193" x="927.68" y="305"/><ellipse cx="942.68" cy="321" fill="#ADD1B2" rx="11" ry="11" style="stroke:#181818;stroke-width:1.0;"/><path d="M945.4456,316.875 Q945.6019,316.6563 945.7894,316.5469 Q945.9769,316.4375 946.1956,316.4375 Q946.5706,316.4375 946.805,316.7031 Q947.0394,316.9531 947.0394,317.5625 L947.0394,319.0156 Q947.0394,319.625 946.805,319.8906 Q946.5706,320.1563 946.1956,320.1563 Q945.8519,320.1563 945.6488,319.9531 Q945.4456,319.7656 945.3363,319.25 Q945.2894,318.8906 945.1019,318.7031 Q944.7738,318.3281 944.1644,318.1094 Q943.555,317.8906 942.93,317.8906 Q942.1644,317.8906 941.5238,318.2188 Q940.8988,318.5469 940.3988,319.2969 Q939.9144,320.0469 939.9144,321.0781 L939.9144,322.1719 Q939.9144,323.4063 940.805,324.2344 Q941.6956,325.0469 943.2894,325.0469 Q944.2269,325.0469 944.8831,324.7969 Q945.2738,324.6406 945.6956,324.2031 Q945.9613,323.9375 946.1019,323.8594 Q946.2581,323.7813 946.4613,323.7813 Q946.7894,323.7813 947.0394,324.0469 Q947.305,324.2969 947.305,324.6406 Q947.305,324.9844 946.9613,325.3906 Q946.4613,325.9688 945.6644,326.2969 Q944.5863,326.75 943.2894,326.75 Q941.7738,326.75 940.5706,326.125 Q939.5863,325.625 938.8988,324.5625 Q938.2113,323.4844 938.2113,322.2031 L938.2113,321.0469 Q938.2113,319.7188 938.8206,318.5781 Q939.4456,317.4219 940.5394,316.8125 Q941.6331,316.1875 942.8675,316.1875 Q943.6019,316.1875 944.2425,316.3594 Q944.8988,316.5156 945.4456,316.875 Z " fill="#000000"/><text fill="#000000" font-family="sans-serif" font-size="14" lengthAdjust="spacing" textLength="161" x="956.68" y="326.7285">SimpleAvailabilityStrategy</text><line style="stroke:#181818;stroke-width:0.5;" x1="928.68" x2="1119.68" y1="337" y2="337"/><line style="stroke:#181818;stroke-width:0.5;" x1="928.68" x2="1119.68" y1="345" y2="345"/></g><!--class SchedulerDecorator--><g id="elem_SchedulerDecorator"><rect codeLine="31" fill="#F1F1F1" height="48" id="SchedulerDecorator" rx="2.5" ry="2.5" style="stroke:#181818;stroke-width:0.5;" width="159" x="456.68" y="305"/><ellipse cx="471.68" cy="321" fill="#A9DCDF" rx="11" ry="11" style="stroke:#181818;stroke-width:1.0;"/><path d="M473.8675,322.7656 L469.7269,322.7656 L469.305,323.7969 L469.7269,323.7969 Q470.3362,323.7969 470.6019,324.0313 Q470.8675,324.2656 470.8675,324.6563 Q470.8675,325.0313 470.6019,325.2656 Q470.3362,325.5 469.7269,325.5 L467.43,325.5 Q466.8206,325.5 466.5706,325.2656 Q466.305,325.0313 466.305,324.6406 Q466.305,324.2656 466.5862,324.0313 Q466.8519,323.7813 467.4769,323.7969 L470.1487,317.1406 L469.0394,317.1406 Q468.43,317.1406 468.1644,316.9063 Q467.8987,316.6719 467.8987,316.2813 Q467.8987,315.9063 468.1644,315.6719 Q468.43,315.4375 469.0394,315.4375 L472.7112,315.4375 L476.1019,323.7969 Q476.6956,323.7969 476.8831,323.9375 Q477.2737,324.2031 477.2737,324.6563 Q477.2737,325.0313 477.0081,325.2656 Q476.7581,325.5 476.1487,325.5 L473.8519,325.5 Q473.2425,325.5 472.9769,325.2656 Q472.7112,325.0313 472.7112,324.6406 Q472.7112,324.2656 472.9769,324.0313 Q473.2425,323.7969 473.8519,323.7969 L474.2737,323.7969 L473.8675,322.7656 Z M473.1487,321.0625 L471.7894,317.6875 L470.4144,321.0625 L473.1487,321.0625 Z " fill="#000000"/><text fill="#000000" font-family="sans-serif" font-size="14" font-style="italic" lengthAdjust="spacing" textLength="127" x="485.68" y="326.7285">SchedulerDecorator</text><line style="stroke:#181818;stroke-width:0.5;" x1="457.68" x2="614.68" y1="337" y2="337"/><line style="stroke:#181818;stroke-width:0.5;" x1="457.68" x2="614.68" y1="345" y2="345"/></g><!--class LoggingDecorator--><g id="elem_LoggingDecorator"><rect codeLine="32" fill="#F1F1F1" height="48" id="LoggingDecorator" rx="2.5" ry="2.5" style="stroke:#181818;stroke-width:0.5;" width="146" x="649.18" y="155"/><ellipse cx="664.18" cy="171" fill="#ADD1B2" rx="11" ry="11" style="stroke:#181818;stroke-width:1.0;"/><path d="M666.9456,166.875 Q667.1019,166.6563 667.2894,166.5469 Q667.4769,166.4375 667.6956,166.4375 Q668.0706,166.4375 668.305,166.7031 Q668.5394,166.9531 668.5394,167.5625 L668.5394,169.0156 Q668.5394,169.625 668.305,169.8906 Q668.0706,170.1563 667.6956,170.1563 Q667.3519,170.1563 667.1488,169.9531 Q666.9456,169.7656 666.8363,169.25 Q666.7894,168.8906 666.6019,168.7031 Q666.2738,168.3281 665.6644,168.1094 Q665.055,167.8906 664.43,167.8906 Q663.6644,167.8906 663.0238,168.2188 Q662.3988,168.5469 661.8988,169.2969 Q661.4144,170.0469 661.4144,171.0781 L661.4144,172.1719 Q661.4144,173.4063 662.305,174.2344 Q663.1956,175.0469 664.7894,175.0469 Q665.7269,175.0469 666.3831,174.7969 Q666.7738,174.6406 667.1956,174.2031 Q667.4613,173.9375 667.6019,173.8594 Q667.7581,173.7813 667.9613,173.7813 Q668.2894,173.7813 668.5394,174.0469 Q668.805,174.2969 668.805,174.6406 Q668.805,174.9844 668.4613,175.3906 Q667.9613,175.9688 667.1644,176.2969 Q666.0863,176.75 664.7894,176.75 Q663.2738,176.75 662.0706,176.125 Q661.0863,175.625 660.3988,174.5625 Q659.7113,173.4844 659.7113,172.2031 L659.7113,171.0469 Q659.7113,169.7188 660.3206,168.5781 Q660.9456,167.4219 662.0394,166.8125 Q663.1331,166.1875 664.3675,166.1875 Q665.1019,166.1875 665.7425,166.3594 Q666.3988,166.5156 666.9456,166.875 Z " fill="#000000"/><text fill="#000000" font-family="sans-serif" font-size="14" lengthAdjust="spacing" textLength="114" x="678.18" y="176.7285">LoggingDecorator</text><line style="stroke:#181818;stroke-width:0.5;" x1="650.18" x2="794.18" y1="187" y2="187"/><line style="stroke:#181818;stroke-width:0.5;" x1="650.18" x2="794.18" y1="195" y2="195"/></g><!--class ValidationDecorator--><g id="elem_ValidationDecorator"><rect codeLine="33" fill="#F1F1F1" height="48" id="ValidationDecorator" rx="2.5" ry="2.5" style="stroke:#181818;stroke-width:0.5;" width="157" x="456.68" y="155"/><ellipse cx="471.68" cy="171" fill="#ADD1B2" rx="11" ry="11" style="stroke:#181818;stroke-width:1.0;"/><path d="M474.4456,166.875 Q474.6019,166.6563 474.7894,166.5469 Q474.9769,166.4375 475.1956,166.4375 Q475.5706,166.4375 475.805,166.7031 Q476.0394,166.9531 476.0394,167.5625 L476.0394,169.0156 Q476.0394,169.625 475.805,169.8906 Q475.5706,170.1563 475.1956,170.1563 Q474.8519,170.1563 474.6487,169.9531 Q474.4456,169.7656 474.3362,169.25 Q474.2894,168.8906 474.1019,168.7031 Q473.7737,168.3281 473.1644,168.1094 Q472.555,167.8906 471.93,167.8906 Q471.1644,167.8906 470.5237,168.2188 Q469.8987,168.5469 469.3987,169.2969 Q468.9144,170.0469 468.9144,171.0781 L468.9144,172.1719 Q468.9144,173.4063 469.805,174.2344 Q470.6956,175.0469 472.2894,175.0469 Q473.2269,175.0469 473.8831,174.7969 Q474.2737,174.6406 474.6956,174.2031 Q474.9612,173.9375 475.1019,173.8594 Q475.2581,173.7813 475.4612,173.7813 Q475.7894,173.7813 476.0394,174.0469 Q476.305,174.2969 476.305,174.6406 Q476.305,174.9844 475.9612,175.3906 Q475.4612,175.9688 474.6644,176.2969 Q473.5862,176.75 472.2894,176.75 Q470.7737,176.75 469.5706,176.125 Q468.5862,175.625 467.8987,174.5625 Q467.2112,173.4844 467.2112,172.2031 L467.2112,171.0469 Q467.2112,169.7188 467.8206,168.5781 Q468.4456,167.4219 469.5394,166.8125 Q470.6331,166.1875 471.8675,166.1875 Q472.6019,166.1875 473.2425,166.3594 Q473.8987,166.5156 474.4456,166.875 Z " fill="#000000"/><text fill="#000000" font-family="sans-serif" font-size="14" lengthAdjust="spacing" textLength="125" x="485.68" y="176.7285">ValidationDecorator</text><line style="stroke:#181818;stroke-width:0.5;" x1="457.68" x2="612.68" y1="187" y2="187"/><line style="stroke:#181818;stroke-width:0.5;" x1="457.68" x2="612.68" y1="195" y2="195"/></g><!--class HtmlHelper--><g id="elem_HtmlHelper"><rect codeLine="37" fill="#F1F1F1" height="48" id="HtmlHelper" rx="2.5" ry="2.5" style="stroke:#181818;stroke-width:0.5;" width="100" x="114.18" y="455"/><ellipse cx="129.18" cy="471" fill="#ADD1B2" rx="11" ry="11" style="stroke:#181818;stroke-width:1.0;"/><path d="M131.9456,466.875 Q132.1019,466.6563 132.2894,466.5469 Q132.4769,466.4375 132.6956,466.4375 Q133.0706,466.4375 133.305,466.7031 Q133.5394,466.9531 133.5394,467.5625 L133.5394,469.0156 Q133.5394,469.625 133.305,469.8906 Q133.0706,470.1563 132.6956,470.1563 Q132.3519,470.1563 132.1488,469.9531 Q131.9456,469.7656 131.8363,469.25 Q131.7894,468.8906 131.6019,468.7031 Q131.2738,468.3281 130.6644,468.1094 Q130.055,467.8906 129.43,467.8906 Q128.6644,467.8906 128.0238,468.2188 Q127.3988,468.5469 126.8988,469.2969 Q126.4144,470.0469 126.4144,471.0781 L126.4144,472.1719 Q126.4144,473.4063 127.305,474.2344 Q128.1956,475.0469 129.7894,475.0469 Q130.7269,475.0469 131.3831,474.7969 Q131.7738,474.6406 132.1956,474.2031 Q132.4613,473.9375 132.6019,473.8594 Q132.7581,473.7813 132.9613,473.7813 Q133.2894,473.7813 133.5394,474.0469 Q133.805,474.2969 133.805,474.6406 Q133.805,474.9844 133.4613,475.3906 Q132.9613,475.9688 132.1644,476.2969 Q131.0863,476.75 129.7894,476.75 Q128.2738,476.75 127.0706,476.125 Q126.0863,475.625 125.3988,474.5625 Q124.7113,473.4844 124.7113,472.2031 L124.7113,471.0469 Q124.7113,469.7188 125.3206,468.5781 Q125.9456,467.4219 127.0394,466.8125 Q128.1331,466.1875 129.3675,466.1875 Q130.1019,466.1875 130.7425,466.3594 Q131.3988,466.5156 131.9456,466.875 Z " fill="#000000"/><text fill="#000000" font-family="sans-serif" font-size="14" lengthAdjust="spacing" textLength="68" x="143.18" y="476.7285">HtmlHelper</text><line style="stroke:#181818;stroke-width:0.5;" x1="115.18" x2="213.18" y1="487" y2="487"/><line style="stroke:#181818;stroke-width:0.5;" x1="115.18" x2="213.18" y1="495" y2="495"/></g><!--class Main--><g id="elem_Main"><rect codeLine="8" fill="#F1F1F1" height="48" id="Main" rx="2.5" ry="2.5" style="stroke:#181818;stroke-width:0.5;" width="62" x="967.18" y="7"/><ellipse cx="982.18" cy="23" fill="#ADD1B2" rx="11" ry="11" style="stroke:#181818;stroke-width:1.0;"/><path d="M984.9456,18.875 Q985.1019,18.6563 985.2894,18.5469 Q985.4769,18.4375 985.6956,18.4375 Q986.0706,18.4375 986.305,18.7031 Q986.5394,18.9531 986.5394,19.5625 L986.5394,21.0156 Q986.5394,21.625 986.305,21.8906 Q986.0706,22.1563 985.6956,22.1563 Q985.3519,22.1563 985.1488,21.9531 Q984.9456,21.7656 984.8363,21.25 Q984.7894,20.8906 984.6019,20.7031 Q984.2738,20.3281 983.6644,20.1094 Q983.055,19.8906 982.43,19.8906 Q981.6644,19.8906 981.0238,20.2188 Q980.3988,20.5469 979.8988,21.2969 Q979.4144,22.0469 979.4144,23.0781 L979.4144,24.1719 Q979.4144,25.4063 980.305,26.2344 Q981.1956,27.0469 982.7894,27.0469 Q983.7269,27.0469 984.3831,26.7969 Q984.7738,26.6406 985.1956,26.2031 Q985.4613,25.9375 985.6019,25.8594 Q985.7581,25.7813 985.9613,25.7813 Q986.2894,25.7813 986.5394,26.0469 Q986.805,26.2969 986.805,26.6406 Q986.805,26.9844 986.4613,27.3906 Q985.9613,27.9688 985.1644,28.2969 Q984.0863,28.75 982.7894,28.75 Q981.2738,28.75 980.0706,28.125 Q979.0863,27.625 978.3988,26.5625 Q977.7113,25.4844 977.7113,24.2031 L977.7113,23.0469 Q977.7113,21.7188 978.3206,20.5781 Q978.9456,19.4219 980.0394,18.8125 Q981.1331,18.1875 982.3675,18.1875 Q983.1019,18.1875 983.7425,18.3594 Q984.3988,18.5156 984.9456,18.875 Z " fill="#000000"/><text fill="#000000" font-family="sans-serif" font-size="14" lengthAdjust="spacing" textLength="30" x="996.18" y="28.7285">Main</text><line style="stroke:#181818;stroke-width:0.5;" x1="968.18" x2="1028.18" y1="39" y2="39"/><line style="stroke:#181818;stroke-width:0.5;" x1="968.18" x2="1028.18" y1="47" y2="47"/></g><!--class DayOfWeek--><g id="elem_DayOfWeek"><rect fill="#F1F1F1" height="48" id="DayOfWeek" rx="2.5" ry="2.5" style="stroke:#181818;stroke-width:0.5;" width="108" x="1206.18" y="716"/><ellipse cx="1221.18" cy="732" fill="#ADD1B2" rx="11" ry="11" style="stroke:#181818;stroke-width:1.0;"/><path d="M1223.9456,727.875 Q1224.1019,727.6563 1224.2894,727.5469 Q1224.4769,727.4375 1224.6956,727.4375 Q1225.0706,727.4375 1225.305,727.7031 Q1225.5394,727.9531 1225.5394,728.5625 L1225.5394,730.0156 Q1225.5394,730.625 1225.305,730.8906 Q1225.0706,731.1563 1224.6956,731.1563 Q1224.3519,731.1563 1224.1487,730.9531 Q1223.9456,730.7656 1223.8362,730.25 Q1223.7894,729.8906 1223.6019,729.7031 Q1223.2737,729.3281 1222.6644,729.1094 Q1222.055,728.8906 1221.43,728.8906 Q1220.6644,728.8906 1220.0237,729.2188 Q1219.3987,729.5469 1218.8987,730.2969 Q1218.4144,731.0469 1218.4144,732.0781 L1218.4144,733.1719 Q1218.4144,734.4063 1219.305,735.2344 Q1220.1956,736.0469 1221.7894,736.0469 Q1222.7269,736.0469 1223.3831,735.7969 Q1223.7737,735.6406 1224.1956,735.2031 Q1224.4612,734.9375 1224.6019,734.8594 Q1224.7581,734.7813 1224.9612,734.7813 Q1225.2894,734.7813 1225.5394,735.0469 Q1225.805,735.2969 1225.805,735.6406 Q1225.805,735.9844 1225.4612,736.3906 Q1224.9612,736.9688 1224.1644,737.2969 Q1223.0862,737.75 1221.7894,737.75 Q1220.2737,737.75 1219.0706,737.125 Q1218.0862,736.625 1217.3987,735.5625 Q1216.7112,734.4844 1216.7112,733.2031 L1216.7112,732.0469 Q1216.7112,730.7188 1217.3206,729.5781 Q1217.9456,728.4219 1219.0394,727.8125 Q1220.1331,727.1875 1221.3675,727.1875 Q1222.1019,727.1875 1222.7425,727.3594 Q1223.3987,727.5156 1223.9456,727.875 Z " fill="#000000"/><text fill="#000000" font-family="sans-serif" font-size="14" lengthAdjust="spacing" textLength="76" x="1235.18" y="737.7285">DayOfWeek</text><line style="stroke:#181818;stroke-width:0.5;" x1="1207.18" x2="1313.18" y1="748" y2="748"/><line style="stroke:#181818;stroke-width:0.5;" x1="1207.18" x2="1313.18" y1="756" y2="756"/></g><!--class String--><g id="elem_String"><rect fill="#F1F1F1" height="48" id="String" rx="2.5" ry="2.5" style="stroke:#181818;stroke-width:0.5;" width="69" x="1349.68" y="716"/><ellipse cx="1364.68" cy="732" fill="#ADD1B2" rx="11" ry="11" style="stroke:#181818;stroke-width:1.0;"/><path d="M1367.4456,727.875 Q1367.6019,727.6563 1367.7894,727.5469 Q1367.9769,727.4375 1368.1956,727.4375 Q1368.5706,727.4375 1368.805,727.7031 Q1369.0394,727.9531 1369.0394,728.5625 L1369.0394,730.0156 Q1369.0394,730.625 1368.805,730.8906 Q1368.5706,731.1563 1368.1956,731.1563 Q1367.8519,731.1563 1367.6487,730.9531 Q1367.4456,730.7656 1367.3362,730.25 Q1367.2894,729.8906 1367.1019,729.7031 Q1366.7737,729.3281 1366.1644,729.1094 Q1365.555,728.8906 1364.93,728.8906 Q1364.1644,728.8906 1363.5237,729.2188 Q1362.8987,729.5469 1362.3987,730.2969 Q1361.9144,731.0469 1361.9144,732.0781 L1361.9144,733.1719 Q1361.9144,734.4063 1362.805,735.2344 Q1363.6956,736.0469 1365.2894,736.0469 Q1366.2269,736.0469 1366.8831,735.7969 Q1367.2737,735.6406 1367.6956,735.2031 Q1367.9612,734.9375 1368.1019,734.8594 Q1368.2581,734.7813 1368.4612,734.7813 Q1368.7894,734.7813 1369.0394,735.0469 Q1369.305,735.2969 1369.305,735.6406 Q1369.305,735.9844 1368.9612,736.3906 Q1368.4612,736.9688 1367.6644,737.2969 Q1366.5862,737.75 1365.2894,737.75 Q1363.7737,737.75 1362.5706,737.125 Q1361.5862,736.625 1360.8987,735.5625 Q1360.2112,734.4844 1360.2112,733.2031 L1360.2112,732.0469 Q1360.2112,730.7188 1360.8206,729.5781 Q1361.4456,728.4219 1362.5394,727.8125 Q1363.6331,727.1875 1364.8675,727.1875 Q1365.6019,727.1875 1366.2425,727.3594 Q1366.8987,727.5156 1367.4456,727.875 Z " fill="#000000"/><text fill="#000000" font-family="sans-serif" font-size="14" lengthAdjust="spacing" textLength="37" x="1378.68" y="737.7285">String</text><line style="stroke:#181818;stroke-width:0.5;" x1="1350.68" x2="1417.68" y1="748" y2="748"/><line style="stroke:#181818;stroke-width:0.5;" x1="1350.68" x2="1417.68" y1="756" y2="756"/></g><!--link Main to SchedulerApp--><g id="link_Main_SchedulerApp"><path codeLine="41" d="M998.18,55.13 C998.18,82.47 998.18,121.68 998.18,148.97 " fill="none" id="Main-to-SchedulerApp" style="stroke:#181818;stroke-width:1.0;"/><polygon fill="#181818" points="998.18,154.97,1002.18,145.97,998.18,149.97,994.18,145.97,998.18,154.97" style="stroke:#181818;stroke-width:1.0;"/><text fill="#000000" font-family="sans-serif" font-size="13" lengthAdjust="spacing" textLength="57" x="999.18" y="99.4951">calls run()</text></g><!--link SchedulerApp to ScheduleFactory--><g id="link_SchedulerApp_ScheduleFactory"><path codeLine="44" d="M1038.15,203.01 C1065.99,219.12 1103.95,241.2 1137.18,261 C1161.39,275.42 1183.2934,288.7463 1204.5034,301.7363 " fill="none" id="SchedulerApp-to-ScheduleFactory" style="stroke:#181818;stroke-width:1.0;stroke-dasharray:7.0,7.0;"/><polygon fill="#181818" points="1209.62,304.87,1204.0341,296.7584,1205.3561,302.2586,1199.8559,303.5806,1209.62,304.87" style="stroke:#181818;stroke-width:1.0;"/><text fill="#000000" font-family="sans-serif" font-size="13" lengthAdjust="spacing" textLength="28" x="1122.18" y="249.4951">uses</text></g><!--link ScheduleFactory to Scheduler--><g id="link_ScheduleFactory_Scheduler"><path codeLine="45" d="M1201.09,353.05 C1181.78,361.82 1158.82,371.11 1137.18,377 C1101.32,386.77 571.2464,451.458 406.1564,471.468 " fill="none" id="ScheduleFactory-to-Scheduler" style="stroke:#181818;stroke-width:1.0;"/><polygon fill="#181818" points="400.2,472.19,409.6159,475.078,405.1637,471.5884,408.6533,467.1361,400.2,472.19" style="stroke:#181818;stroke-width:1.0;"/><text fill="#000000" font-family="sans-serif" font-size="13" lengthAdjust="spacing" textLength="43" x="1082.18" y="399.4951">creates</text></g><!--link ScheduleFactory to ScheduleType--><g id="link_ScheduleFactory_ScheduleType"><path codeLine="46" d="M1247.18,353.12 C1247.18,380.77 1247.18,420.76 1247.18,448.55 " fill="none" id="ScheduleFactory-to-ScheduleType" style="stroke:#181818;stroke-width:1.0;"/><polygon fill="#181818" points="1247.18,454.55,1251.18,445.55,1247.18,449.55,1243.18,445.55,1247.18,454.55" style="stroke:#181818;stroke-width:1.0;"/></g><!--link BasicScheduler to TimeSelectionStrategy--><g id="link_BasicScheduler_TimeSelectionStrategy"><path codeLine="49" d="M378.21,353.08 C396.77,362.02 419.04,371.42 440.18,377 C476.44,386.57 487.05,379.75 524.18,385 C667.91,405.3 827.4987,437.1441 926.0787,457.8941 " fill="none" id="BasicScheduler-to-TimeSelectionStrategy" style="stroke:#181818;stroke-width:1.0;stroke-dasharray:7.0,7.0;"/><polygon fill="#181818" points="931.95,459.13,923.9669,453.362,927.0572,458.1001,922.3191,461.1904,931.95,459.13" style="stroke:#181818;stroke-width:1.0;"/><text fill="#000000" font-family="sans-serif" font-size="13" lengthAdjust="spacing" textLength="28" x="634.18" y="399.4951">uses</text></g><!--link SimpleAvailabilityStrategy to TimeSelectionStrategy--><g id="link_SimpleAvailabilityStrategy_TimeSelectionStrategy"><path codeLine="50" d="M1023.4,353.12 C1022.47,380.77 1021.5185,408.7703 1020.5785,436.5603 " fill="none" id="SimpleAvailabilityStrategy-to-TimeSelectionStrategy" style="stroke:#181818;stroke-width:1.0;stroke-dasharray:7.0,7.0;"/><polygon fill="none" points="1019.97,454.55,1026.5751,436.7631,1014.5819,436.3575,1019.97,454.55" style="stroke:#181818;stroke-width:1.0;"/></g><!--link BasicScheduler to Scheduler--><g id="link_BasicScheduler_Scheduler"><path codeLine="53" d="M337.84,353.12 C341.01,380.77 344.2473,408.8774 347.4373,436.6674 " fill="none" id="BasicScheduler-to-Scheduler" style="stroke:#181818;stroke-width:1.0;stroke-dasharray:7.0,7.0;"/><polygon fill="none" points="349.49,454.55,353.3981,435.9832,341.4764,437.3517,349.49,454.55" style="stroke:#181818;stroke-width:1.0;"/></g><!--link SchedulerDecorator to Scheduler--><g id="link_SchedulerDecorator_Scheduler"><path codeLine="54" d="M484.96,353.11 C468,361.91 449.54,372.8 434.18,385 C408.39,405.49 395.0261,420.365 379.6861,440.565 " fill="none" id="SchedulerDecorator-to-Scheduler" style="stroke:#181818;stroke-width:1.0;stroke-dasharray:7.0,7.0;"/><polygon fill="none" points="368.8,454.9,384.4644,444.1937,374.9078,436.9363,368.8,454.9" style="stroke:#181818;stroke-width:1.0;"/></g><!--reverse link SchedulerDecorator to Scheduler--><g id="link_SchedulerDecorator_Scheduler"><path codeLine="59" d="M498.0811,360.6431 C463.6211,388.3731 415.54,427.03 381.03,454.79 " fill="none" id="SchedulerDecorator-backto-Scheduler" style="stroke:#181818;stroke-width:1.0;"/><polygon fill="none" points="507.43,353.12,500.2478,353.7652,498.0811,360.6431,505.2632,359.9979,507.43,353.12" style="stroke:#181818;stroke-width:1.0;"/><text fill="#000000" font-family="sans-serif" font-size="13" lengthAdjust="spacing" textLength="49" x="466.18" y="399.4951">delegate</text></g><!--link LoggingDecorator to SchedulerDecorator--><g id="link_LoggingDecorator_SchedulerDecorator"><path codeLine="55" d="M693.12,203.12 C658.28,230.85 614.314,265.821 579.434,293.581 " fill="none" id="LoggingDecorator-to-SchedulerDecorator" style="stroke:#181818;stroke-width:1.0;"/><polygon fill="none" points="565.35,304.79,583.1703,298.2756,575.6976,288.8863,565.35,304.79" style="stroke:#181818;stroke-width:1.0;"/></g><!--link ValidationDecorator to SchedulerDecorator--><g id="link_ValidationDecorator_SchedulerDecorator"><path codeLine="56" d="M535.34,203.12 C535.52,230.77 535.7234,258.7604 535.9034,286.5504 " fill="none" id="ValidationDecorator-to-SchedulerDecorator" style="stroke:#181818;stroke-width:1.0;"/><polygon fill="none" points="536.02,304.55,541.9033,286.5115,529.9035,286.5892,536.02,304.55" style="stroke:#181818;stroke-width:1.0;"/></g><!--link SchedulerApp to Scheduler--><g id="link_SchedulerApp_Scheduler"><path codeLine="62" d="M956.2,203.04 C932.31,217.54 902.92,237.86 881.18,261 C839.96,304.89 861.77,344.34 811.18,377 C798.58,385.13 758.95,382.38 744.18,385 C619.02,407.24 479.782,443.214 406.182,463.114 " fill="none" id="SchedulerApp-to-Scheduler" style="stroke:#181818;stroke-width:1.0;stroke-dasharray:7.0,7.0;"/><polygon fill="#181818" points="400.39,464.68,410.1221,466.1923,405.2167,463.375,408.034,458.4696,400.39,464.68" style="stroke:#181818;stroke-width:1.0;"/><text fill="#000000" font-family="sans-serif" font-size="13" lengthAdjust="spacing" textLength="28" x="882.18" y="334.4951">uses</text></g><!--link SchedulerApp to HtmlHelper--><g id="link_SchedulerApp_HtmlHelper"><path codeLine="63" d="M937.29,198.4 C901.02,208.58 853.87,220.46 811.18,227 C746.6,236.9 275,219.95 224.18,261 C165.04,308.77 160.9271,403.2134 162.4671,448.7234 " fill="none" id="SchedulerApp-to-HtmlHelper" style="stroke:#181818;stroke-width:1.0;stroke-dasharray:7.0,7.0;"/><polygon fill="#181818" points="162.67,454.72,166.3633,445.5899,162.5009,449.7229,158.3679,445.8604,162.67,454.72" style="stroke:#181818;stroke-width:1.0;"/><text fill="#000000" font-family="sans-serif" font-size="13" lengthAdjust="spacing" textLength="28" x="225.18" y="334.4951">uses</text></g><!--link SchedulerApp to TimeSlot--><g id="link_SchedulerApp_TimeSlot"><path codeLine="64" d="M1058.97,185.83 C1146.09,195.58 1299.69,218.45 1333.18,261 C1410.82,359.65 1358.2534,521.2992 1334.1734,582.2892 " fill="none" id="SchedulerApp-to-TimeSlot" style="stroke:#181818;stroke-width:1.0;stroke-dasharray:7.0,7.0;"/><polygon fill="#181818" points="1331.97,587.87,1338.9956,580.9678,1333.8062,583.2194,1331.5546,578.0299,1331.97,587.87" style="stroke:#181818;stroke-width:1.0;"/></g><!--link HtmlHelper to TimeSlot--><g id="link_HtmlHelper_TimeSlot"><path codeLine="67" d="M200.43,503.2 C216.31,512.21 235.55,521.64 254.18,527 C451.59,583.74 1097.3922,604.936 1272.5322,609.726 " fill="none" id="HtmlHelper-to-TimeSlot" style="stroke:#181818;stroke-width:1.0;stroke-dasharray:7.0,7.0;"/><polygon fill="#181818" points="1278.53,609.89,1269.6427,605.6454,1273.5319,609.7533,1269.424,613.6425,1278.53,609.89" style="stroke:#181818;stroke-width:1.0;"/></g><!--link BasicScheduler to HtmlHelper--><g id="link_BasicScheduler_HtmlHelper"><path codeLine="70" d="M308.46,353.12 C276.43,380.85 227.6071,423.1039 195.5271,450.8639 " fill="none" id="BasicScheduler-to-HtmlHelper" style="stroke:#181818;stroke-width:1.0;stroke-dasharray:7.0,7.0;"/><polygon fill="#181818" points="190.99,454.79,200.4131,451.9255,194.7709,451.5182,195.1783,445.876,190.99,454.79" style="stroke:#181818;stroke-width:1.0;"/><text fill="#000000" font-family="sans-serif" font-size="13" lengthAdjust="spacing" textLength="28" x="270.18" y="399.4951">uses</text></g><!--link ValidationDecorator to HtmlHelper--><g id="link_ValidationDecorator_HtmlHelper"><path codeLine="71" d="M456.59,180.4 C364.13,182.92 207.03,193.67 79.18,235 C56.47,242.34 44.31,240.44 32.18,261 C6,305.41 9.35,330.78 32.18,377 C49.37,411.8 79.7108,434.9503 109.6008,451.9003 " fill="none" id="ValidationDecorator-to-HtmlHelper" style="stroke:#181818;stroke-width:1.0;stroke-dasharray:7.0,7.0;"/><polygon fill="#181818" points="114.82,454.86,108.9643,446.941,110.4707,452.3936,105.018,453.8999,114.82,454.86" style="stroke:#181818;stroke-width:1.0;"/><text fill="#000000" font-family="sans-serif" font-size="13" lengthAdjust="spacing" textLength="28" x="33.18" y="334.4951">uses</text></g><!--link LoggingDecorator to HtmlHelper--><g id="link_LoggingDecorator_HtmlHelper"><path codeLine="72" d="M686.96,203.01 C670.68,212.35 650.66,222.08 631.18,227 C582.48,239.29 227.7,222.01 179.18,235 C156.12,241.17 144.31,240.44 132.18,261 C106,305.41 124.3,326.05 132.18,377 C136.43,404.45 144.6374,429.0633 152.4274,449.2233 " fill="none" id="LoggingDecorator-to-HtmlHelper" style="stroke:#181818;stroke-width:1.0;stroke-dasharray:7.0,7.0;"/><polygon fill="#181818" points="154.59,454.82,155.0772,444.9832,152.7878,450.1561,147.6149,447.8667,154.59,454.82" style="stroke:#181818;stroke-width:1.0;"/><text fill="#000000" font-family="sans-serif" font-size="13" lengthAdjust="spacing" textLength="28" x="133.18" y="334.4951">uses</text></g><!--reverse link TimeSlot to DayOfWeek--><g id="link_TimeSlot_DayOfWeek"><path codeLine="75" d="M1305.5103,646.8763 C1294.3903,669.4663 1282.86,692.92 1271.69,715.61 " fill="none" id="TimeSlot-backto-DayOfWeek" style="stroke:#181818;stroke-width:1.0;"/><polygon fill="none" points="1310.81,636.11,1304.5714,639.7266,1305.5103,646.8763,1311.7489,643.2597,1310.81,636.11" style="stroke:#181818;stroke-width:1.0;"/><text fill="#000000" font-family="sans-serif" font-size="13" lengthAdjust="spacing" textLength="21" x="1295.18" y="682.4951">day</text><text fill="#000000" font-family="sans-serif" font-size="13" lengthAdjust="spacing" textLength="7" x="1266.6424" y="705.2529">1</text></g><!--reverse link TimeSlot to String--><g id="link_TimeSlot_String"><path codeLine="76" d="M1338.8497,646.8763 C1349.9697,669.4663 1361.51,692.92 1372.67,715.61 " fill="none" id="TimeSlot-backto-String" style="stroke:#181818;stroke-width:1.0;"/><polygon fill="none" points="1333.55,636.11,1332.6111,643.2597,1338.8497,646.8763,1339.7886,639.7266,1333.55,636.11" style="stroke:#181818;stroke-width:1.0;"/><text fill="#000000" font-family="sans-serif" font-size="13" lengthAdjust="spacing" textLength="56" x="1357.18" y="682.4951">timeLabel</text><text fill="#000000" font-family="sans-serif" font-size="13" lengthAdjust="spacing" textLength="7" x="1362.0113" y="705.2529">1</text></g><!--SRC=[VLF1Jjqm4BpdAomkq4EGUkM01AeG1r2H7gBdVSuIB3PnP3jKKUc_O_iviPquv6RFxEnuPtFEwhfcJy3VeKNj3jLmEZ0O1lQlOlRZ15gp0t_3PYHKDyDG_Q-g17e4qTkBkV8Lk95gAbRVdJ2FO3zs2_0y3UXaPn4TxeEAw0qgAupHHw9-2rhm22GodMoGCYVFeiC3IPCrCmeCjjEccISZ8JT2zeV0Ifybke7mvWC4mL6GCDD2IkGRvDBUIXNquUWQShEUxA-PbtHua6qh-hO4lG291fopY2PTHoFobz-RZkwHXjE4pdtqBZfsH_AlpzwVwlew2vjTCGv4cgcnl_Wn5uOWxUuOEwpUbsTLbvVNwzIjqgXHL-lhhADhfz3Ey7kUtvVWPPvvPYRV2M-dcEPYQZTAM_kvKxmuMFh4tIcQ-4nUMcs3NpFMwLlH58-v5tPXbniyHs8nmmZBx85NTfq9M_lypUDTx0h9sz3VRuHQxyB2Y5kwIrb-uM0WqA5lsAF_trthHATKCuioagtWUnkpDLCQT9cvoQvCczC00t5uRs8u3N2sxKCu-tbcUTFlrp-8xou8cBO4kvgsgqMDHHxWY5Hz0G00]--></g></svg>